<svg width="200" height="200" xmlns="http://www.w3.org/2000/svg" version="1.1" clip-rule="evenodd" stroke="null">
 <g stroke="null">
  <title stroke="null">Layer 1</title>
  <g id="svg_35" stroke="null">
   <path fill="#f1ddd2" d="m133.5,153.5c-0.329,13.844 0.004,27.51 1,41c-0.06,0.543 -0.393,0.876 -1,1c-1.326,-14.161 -1.326,-28.161 0,-42z" opacity="0.02" id="svg_36" stroke="null"/>
  </g>
  <path id="svg_48" d="m100.33425,98.83424l-60.6674,-59.50073l-1.66667,126.00058l-18.66675,-15.3334l0.66667,-134.66729l11.33339,-11.66672l69.33365,67.33364l-0.33288,27.83392z" fill="#145f6b"/>
  <path stroke="null" id="svg_50" d="m100.00091,98.50091l60.99983,-58.83406l2.00001,129.00059l17.66675,-17.33341l-0.33333,-136.00063l-10.00005,-10.00005l-70.00032,66.0003l-0.33288,27.16725z" fill="#05434d"/>
  <line stroke-width="3" id="svg_52" y2="59.50073" x2="100.00092" y1="25.83391" x1="97.0009" stroke-opacity="0" stroke-dasharray="2,2" stroke="#bf005f" fill="none"/>
  <path id="svg_53" d="m99.66758,138.83443l-32.33394,-32.5006l0.33333,86.66707l-19.00009,-15.66674l1,-113.00052l50.33357,48.00022l-0.33288,26.50058z" stroke="null" fill="#f47123"/>
  <path id="svg_54" d="m99.6246,138.49953l33.12513,-30.49974l1.5,86.24983l18.49996,-16.24997l-1,-114.74977l-51.9999,49.4999l-0.1252,25.74975z" opacity="NaN" stroke="null" fill="#e34c1d"/>
 </g>

</svg>